#define disk_width 16
#define disk_height 16
static unsigned char disk_bits[] = {
   0x00, 0x00, 0x00, 0x00, 0x00, 0x00, 0x00, 0x00, 0xf8, 0x0f, 0x18, 0x37,
   0x18, 0x37, 0x18, 0x37, 0x18, 0x30, 0xf8, 0x3f, 0x18, 0x30, 0x18, 0x30,
   0x18, 0x30, 0x18, 0x30, 0xf8, 0x3f, 0x00, 0x00 };
